<?xml version="1.0" standalone="no"?>
<!DOCTYPE svg PUBLIC "-//W3C//DTD SVG 20010904//EN"
 "http://www.w3.org/TR/2001/REC-SVG-20010904/DTD/svg10.dtd">
<svg version="1.0" xmlns="http://www.w3.org/2000/svg"
 width="150.000000pt" height="150.000000pt" viewBox="0 0 150.000000 150.000000"
 preserveAspectRatio="xMidYMid meet">

<g transform="translate(0.000000,150.000000) scale(0.100000,-0.100000)"
fill="#000000" stroke="none">
<path d="M663 1270 c-207 -22 -392 -139 -470 -298 -25 -52 -28 -67 -28 -162 0
-96 3 -110 29 -165 34 -70 132 -172 194 -204 23 -12 42 -24 42 -26 0 -3 -13
-53 -30 -112 -16 -58 -30 -108 -30 -110 0 -17 52 10 150 76 l117 79 104 0
c116 1 172 11 269 49 324 129 423 453 209 688 -84 92 -234 166 -363 180 -103
11 -122 12 -193 5z m-129 -343 c14 -23 -14 -47 -56 -47 l-27 0 -3 -112 -3
-113 -25 0 -25 0 -3 113 -3 112 -25 0 c-32 0 -64 17 -64 33 0 31 25 38 124 35
83 -3 101 -6 110 -21z m118 6 c21 -26 100 -239 96 -260 -2 -10 -13 -19 -25
-21 -16 -2 -26 5 -38 27 -14 28 -20 31 -65 31 -44 0 -50 -3 -62 -27 -15 -32
-55 -43 -64 -18 -7 17 65 221 92 263 17 26 45 29 66 5z m176 5 c8 -8 12 -48
12 -115 l0 -103 33 0 c42 0 73 -21 64 -44 -6 -14 -19 -16 -84 -14 l-78 3 -3
129 c-3 127 3 156 32 156 7 0 17 -5 24 -12z m190 -41 c2 -26 6 -47 10 -47 5 0
28 20 52 45 77 79 124 42 50 -39 l-41 -44 45 -62 c37 -51 44 -65 36 -81 -17
-32 -38 -22 -86 41 -26 33 -51 57 -55 54 -5 -3 -9 -27 -9 -54 0 -49 -14 -66
-45 -54 -12 5 -15 31 -15 144 0 141 3 151 40 147 10 -2 16 -17 18 -50z"/>
<path d="M612 840 c-26 -67 -26 -70 7 -70 34 0 36 7 16 60 l-13 35 -10 -25z"/>
</g>
</svg>
