<?xml version="1.0" standalone="no"?>
<!DOCTYPE svg PUBLIC "-//W3C//DTD SVG 20010904//EN"
 "http://www.w3.org/TR/2001/REC-SVG-20010904/DTD/svg10.dtd">
<svg version="1.0" xmlns="http://www.w3.org/2000/svg"
 width="150.000000pt" height="150.000000pt" viewBox="0 0 150.000000 150.000000"
 preserveAspectRatio="xMidYMid meet">

<g transform="translate(0.000000,150.000000) scale(0.100000,-0.100000)"
fill="#000000" stroke="none">
<path d="M96 1441 c-57 -38 -55 -15 -56 -689 0 -560 2 -627 16 -652 37 -62 11
-60 694 -60 690 0 662 -3 695 66 23 48 23 1240 0 1288 -33 69 -4 66 -697 66
-599 0 -624 -1 -652 -19z m912 -248 c-4 -84 -10 -120 -28 -161 -19 -45 -21
-55 -9 -63 8 -5 20 -7 27 -4 6 2 12 0 12 -5 0 -5 11 -12 24 -16 14 -3 27 -12
30 -19 3 -9 24 -13 64 -13 46 1 71 -5 110 -27 29 -15 54 -36 57 -46 4 -11 11
-19 17 -19 6 0 8 -3 5 -6 -3 -4 -2 -16 4 -26 13 -23 18 -128 7 -128 -5 0 -8
-7 -8 -15 0 -16 -100 -123 -100 -108 0 4 -7 0 -14 -10 -8 -10 -16 -17 -19 -15
-3 2 -17 -7 -30 -19 -14 -12 -28 -19 -31 -16 -3 4 -6 2 -6 -4 0 -6 -9 -13 -21
-16 -12 -3 -19 -12 -17 -19 3 -7 -6 -24 -19 -38 -13 -14 -23 -27 -23 -31 0
-10 -79 -89 -90 -89 -5 0 -10 -4 -10 -10 0 -5 -6 -10 -14 -10 -7 0 -19 -7 -26
-15 -7 -9 -15 -13 -18 -10 -3 3 -17 -3 -31 -12 -21 -14 -51 -18 -151 -19 -107
-2 -130 0 -158 17 -19 11 -38 17 -43 14 -5 -4 -9 -2 -9 4 0 5 -8 12 -19 16
-38 12 -136 122 -171 192 l-35 69 -3 161 c-3 135 -1 167 13 197 9 19 25 38 36
41 10 4 19 11 19 16 0 5 6 9 14 9 7 0 19 7 26 15 7 8 16 12 21 9 5 -2 23 3 41
13 18 9 40 16 49 15 30 -5 69 17 69 37 0 25 29 90 52 115 10 11 20 27 23 35 5
16 41 41 100 70 52 26 158 49 224 50 l64 1 -5 -107z"/>
<path d="M592 868 l-52 -53 0 39 0 38 -37 -7 c-81 -15 -156 -67 -138 -95 11
-18 83 -50 147 -65 84 -20 279 -19 366 0 70 16 143 51 149 72 7 21 -44 59
-103 78 -56 17 -57 17 -101 -4 -58 -28 -68 -27 -111 14 -20 19 -44 35 -52 35
-8 0 -39 -24 -68 -52z"/>
<path d="M1148 802 c-16 -3 -18 -16 -18 -97 0 -80 2 -93 15 -89 8 4 15 10 15
15 0 5 3 8 8 7 10 -4 52 39 45 46 -4 3 -2 6 3 6 5 0 9 14 9 30 0 17 -4 30 -8
30 -5 0 -6 4 -3 9 3 5 -1 12 -10 15 -8 3 -13 10 -10 15 7 10 -22 19 -46 13z"/>
</g>
</svg>
